<?xml version="1.0" encoding="UTF-8"?>
<!-- Generator: visioncortex VTracer 0.6.12 -->
<svg version="1.1" xmlns="http://www.w3.org/2000/svg" width="207" height="207">
<path d="M0 0 C0.895 -0.002 1.79 -0.004 2.712 -0.005 C5.662 -0.01 8.612 -0.007 11.562 -0.003 C13.612 -0.004 15.663 -0.005 17.714 -0.006 C22.007 -0.008 26.3 -0.006 30.593 -0.001 C36.104 0.005 41.616 0.001 47.128 -0.005 C51.359 -0.008 55.591 -0.007 59.823 -0.004 C61.856 -0.004 63.889 -0.005 65.922 -0.007 C68.757 -0.009 71.591 -0.006 74.426 0 C74.848 -0.001 74.848 -0.001 76.987 -0.006 C82.79 0.015 82.79 0.015 85.019 1.129 C83.686 4.717 82.188 7.966 80.019 11.129 C79.359 11.129 78.699 11.129 78.019 11.129 C77.359 13.109 76.699 15.089 76.019 17.129 C75.359 17.129 74.699 17.129 74.019 17.129 C73.813 17.789 73.606 18.449 73.394 19.129 C71.796 22.616 69.713 25.35 67.359 28.36 C66.019 30.129 66.019 30.129 65.019 32.129 C64.359 32.129 63.699 32.129 63.019 32.129 C62.905 32.48 62.905 32.48 62.331 34.254 C61.019 37.129 61.019 37.129 58.456 40.192 C56.149 42.973 55.782 43.859 55.019 47.129 C53.699 48.476 52.363 49.807 51.019 51.129 C47.936 54.73 44.977 58.426 42.019 62.129 C41.448 62.822 40.877 63.514 40.288 64.227 C38.894 66.004 38.894 66.004 37.019 69.129 C37.402 71.825 37.402 71.825 38.019 74.129 C45.864 74.288 53.643 73.926 61.467 73.397 C62.256 73.349 63.046 73.3 63.859 73.25 C64.211 73.227 64.211 73.227 65.995 73.108 C68.019 73.129 68.019 73.129 69.91 73.62 C72.633 74.278 75.121 74.205 77.921 74.157 C78.49 74.151 78.49 74.151 81.368 74.12 C83.756 74.085 86.145 74.045 88.532 74.002 C89.671 73.991 90.81 73.981 91.984 73.969 C92.502 73.961 92.502 73.961 95.128 73.918 C98.139 74.138 100.297 74.86 103.019 76.129 C99.032 84.411 99.032 84.411 96.081 86.504 C93.938 88.193 93.218 89.385 91.956 91.754 C90.019 95.129 90.019 95.129 87.019 96.129 C86.689 96.789 86.689 96.789 85.019 100.129 C52.019 100.129 19.019 100.129 -14.981 100.129 C-15.311 98.479 -15.641 96.829 -15.981 95.129 C-13.669 92.442 -13.669 92.442 -10.981 90.129 C-8.981 88.129 -8.981 88.129 -8.856 85.504 C-8.897 84.721 -8.939 83.937 -8.981 83.129 C-8.383 83.068 -7.785 83.006 -7.169 82.942 C-4.981 82.129 -4.981 82.129 -1.981 77.129 C-12.211 77.129 -22.441 77.129 -32.981 77.129 C-33.641 78.779 -34.301 80.429 -34.981 82.129 C-36.305 84.136 -37.638 86.136 -38.981 88.129 C-39.146 88.624 -39.146 88.624 -39.981 91.129 C-41.315 92.463 -42.648 93.796 -43.981 95.129 C-44.374 95.988 -44.767 96.847 -45.172 97.732 C-46.981 100.129 -46.981 100.129 -50.167 100.697 C-51.451 100.671 -52.734 100.645 -54.055 100.618 C-54.397 100.614 -54.397 100.614 -56.128 100.596 C-58.309 100.568 -60.488 100.506 -62.669 100.442 C-64.148 100.417 -65.628 100.394 -67.108 100.374 C-70.733 100.318 -74.357 100.232 -77.981 100.129 C-78.311 99.469 -78.641 98.809 -78.981 98.129 C-78.047 96.098 -77.049 94.094 -75.981 92.129 C-75.321 92.129 -74.661 92.129 -73.981 92.129 C-72.906 89.477 -71.887 86.846 -70.981 84.129 C-70.321 84.129 -69.661 84.129 -68.981 84.129 C-68.981 83.469 -68.981 82.809 -68.981 82.129 C-68.321 82.129 -67.661 82.129 -66.981 82.129 C-66.899 81.408 -66.816 80.686 -66.731 79.942 C-65.827 76.549 -64.233 74.791 -61.981 72.129 C-61.272 70.818 -60.587 69.492 -59.981 68.129 C-59.321 68.129 -58.661 68.129 -57.981 68.129 C-57.708 67.391 -57.435 66.654 -57.154 65.893 C-56.05 63.292 -54.834 61.218 -53.223 58.907 C-52.684 58.126 -52.144 57.346 -51.588 56.542 C-51.017 55.725 -50.445 54.908 -49.856 54.067 C-48.679 52.365 -47.502 50.664 -46.325 48.961 C-46.039 48.549 -46.039 48.549 -44.591 46.46 C-42.484 43.41 -40.414 40.338 -38.356 37.254 C-37.766 36.37 -37.175 35.486 -36.567 34.575 C-34.979 32.126 -33.478 29.635 -31.981 27.129 C-31.321 26.139 -30.661 25.149 -29.981 24.129 C-29.321 24.129 -28.661 24.129 -27.981 24.129 C-27.321 22.149 -26.661 20.169 -25.981 18.129 C-25.321 18.129 -24.661 18.129 -23.981 18.129 C-23.856 17.694 -23.856 17.694 -23.219 15.493 C-21.923 11.972 -20.347 9.362 -18.169 6.317 C-17.502 5.362 -16.836 4.407 -16.149 3.422 C-11.954 -1.015 -5.74 -0.014 0 0 Z M-5.981 6.129 C-4.073 12.808 -2.798 17.252 3.019 21.129 C4.923 21.356 4.923 21.356 7.091 21.325 C7.905 21.318 8.72 21.311 9.558 21.305 C10.434 21.288 11.309 21.271 12.21 21.254 C12.661 21.251 12.661 21.251 14.941 21.231 C17.821 21.207 20.701 21.17 23.581 21.129 C27.374 21.076 31.167 21.036 34.96 21.004 C35.837 20.988 36.714 20.971 37.618 20.954 C39.752 20.937 41.887 21.024 44.019 21.129 C44.679 21.789 45.339 22.449 46.019 23.129 C39.632 32.117 33.188 41.028 26.447 49.754 C26.017 50.311 25.587 50.868 25.144 51.442 C24.716 51.996 24.288 52.55 23.847 53.122 C20.386 57.619 17.027 62.185 13.71 66.79 C12.613 68.307 11.477 69.797 10.296 71.25 C9.019 73.129 9.019 73.129 9.019 76.129 C8.359 76.129 7.699 76.129 7.019 76.129 C6.115 77.451 5.221 78.78 4.37 80.137 C2.026 83.593 -0.706 86.747 -3.372 89.958 C-4.981 92.129 -4.981 92.129 -4.981 94.129 C5.303 94.185 15.586 94.19 25.87 94.144 C32.176 94.121 38.479 94.159 44.785 94.229 C49.134 94.268 53.482 94.263 57.831 94.25 C59.947 94.253 62.063 94.273 64.179 94.311 C80.953 94.597 80.953 94.597 86.159 90.898 C91.019 84.996 91.019 84.996 91.019 81.129 C83.708 79.976 76.502 80.002 69.113 80.032 C67.779 80.034 66.445 80.035 65.111 80.036 C61.626 80.04 58.141 80.05 54.656 80.061 C51.089 80.071 47.523 80.076 43.956 80.081 C36.977 80.091 29.998 80.108 23.019 80.129 C24.342 76.694 25.686 73.973 27.956 71.067 C28.46 70.416 28.964 69.765 29.484 69.094 C30.552 67.727 31.628 66.365 32.71 65.008 C34.019 63.129 34.019 63.129 34.019 61.129 C34.679 61.129 35.339 61.129 36.019 61.129 C36.287 60.531 36.555 59.933 36.831 59.317 C38.032 57.105 39.252 55.896 41.019 54.129 C45.019 48.644 45.019 48.644 45.019 45.129 C45.585 44.919 46.151 44.709 46.734 44.493 C49.857 42.629 51.446 40.248 53.581 37.317 C54.346 36.279 55.11 35.242 55.898 34.172 C61.019 26.826 61.019 26.826 61.019 24.129 C62.009 23.799 62.999 23.469 64.019 23.129 C65.3 21.387 65.3 21.387 66.519 19.254 C68.758 15.365 68.758 15.365 70.55 13.747 C72.019 12.129 72.019 12.129 74.019 6.129 C47.619 6.129 21.219 6.129 -5.981 6.129 Z M-12.981 10.129 C-14.853 12.904 -16.709 15.666 -18.407 18.551 C-19.936 21.055 -21.59 23.351 -23.356 25.692 C-27.285 31.035 -30.893 36.553 -34.481 42.129 C-38.453 48.297 -42.498 54.339 -46.884 60.223 C-51.277 66.31 -55.362 72.616 -59.49 78.884 C-60.543 80.469 -61.609 82.046 -62.683 83.617 C-63.233 84.423 -63.782 85.229 -64.348 86.059 C-64.852 86.791 -65.356 87.523 -65.875 88.277 C-66.981 90.129 -66.981 90.129 -66.981 92.129 C-67.311 92.294 -67.311 92.294 -68.981 93.129 C-66.947 95.164 -62.952 94.36 -60.169 94.379 C-59.444 94.4 -58.719 94.421 -57.971 94.442 C-54.763 94.465 -52.425 94.374 -49.587 92.809 C-47.667 90.801 -46.417 88.582 -45.106 86.145 C-42.972 82.322 -40.434 78.753 -37.981 75.129 C-37.063 73.755 -36.147 72.38 -35.231 71.004 C-31.604 65.563 -27.976 60.122 -24.348 54.68 C-23.952 54.084 -23.555 53.487 -23.146 52.873 C-22.03 51.202 -20.9 49.541 -19.77 47.879 C-17.981 45.129 -17.981 45.129 -16.481 41.817 C-14.981 39.129 -14.981 39.129 -12.887 38.461 C-12.573 38.407 -12.573 38.407 -10.981 38.129 C-7.891 42.25 -5.32 46.243 -3.079 50.872 C-1.751 53.604 -0.385 56.31 1.019 59.004 C1.493 59.93 1.968 60.855 2.456 61.809 C4.124 64.286 5.261 65.095 8.019 66.129 C11.019 62.379 11.019 62.379 11.019 60.129 C11.679 60.129 12.339 60.129 13.019 60.129 C13.769 58.067 13.769 58.067 14.019 55.129 C12.456 52.004 12.456 52.004 11.312 50.188 C9.853 47.866 8.564 45.484 7.269 43.067 C3.945 36.956 0.504 30.916 -2.97 24.89 C-3.979 23.133 -4.979 21.37 -5.977 19.606 C-6.287 19.063 -6.287 19.063 -7.856 16.317 C-8.133 15.829 -8.133 15.829 -9.536 13.36 C-10.981 11.129 -10.981 11.129 -12.981 10.129 Z M4.019 26.129 C12.144 42.379 12.144 42.379 17.019 50.129 C19.977 49.808 20.913 49.25 22.913 46.977 C23.546 46.058 24.179 45.139 24.831 44.192 C25.518 43.204 26.205 42.217 26.913 41.2 C27.608 40.187 28.303 39.173 29.019 38.129 C29.703 37.178 30.388 36.227 31.093 35.247 C36.019 28.392 36.019 28.392 36.019 26.129 C25.459 26.129 14.899 26.129 4.019 26.129 Z M-12.981 48.129 C-14.489 49.844 -14.489 49.844 -16.106 52.067 C-16.645 52.798 -17.184 53.529 -17.739 54.282 C-18.981 56.129 -18.981 56.129 -18.981 57.129 C-15.351 57.459 -11.721 57.789 -7.981 58.129 C-7.981 53.798 -8.947 51.859 -10.981 48.129 C-11.641 48.129 -12.301 48.129 -12.981 48.129 Z M-25.981 66.129 C-25.651 67.449 -25.321 68.769 -24.981 70.129 C-16.731 70.129 -8.481 70.129 0.019 70.129 C-0.981 66.129 -0.981 66.129 -2.981 64.129 C-5.591 63.715 -5.591 63.715 -8.731 63.504 C-9.244 63.467 -9.244 63.467 -11.841 63.278 C-21.308 62.83 -21.308 62.83 -25.981 66.129 Z M34.019 73.129 C33.689 73.789 33.359 74.449 33.019 75.129 C33.679 75.129 34.339 75.129 35.019 75.129 C34.689 74.469 34.359 73.809 34.019 73.129 Z " fill="#3F50B1" transform="translate(90.981201171875,52.87060546875)"/>
<path d="M0 0 C0.895 -0.002 1.79 -0.004 2.712 -0.005 C5.662 -0.01 8.612 -0.007 11.562 -0.003 C13.612 -0.004 15.663 -0.005 17.714 -0.006 C22.007 -0.008 26.3 -0.006 30.593 -0.001 C36.104 0.005 41.616 0.001 47.128 -0.005 C51.359 -0.008 55.591 -0.007 59.823 -0.004 C61.856 -0.004 63.889 -0.005 65.922 -0.007 C68.757 -0.009 71.591 -0.006 74.426 0 C74.848 -0.001 74.848 -0.001 76.987 -0.006 C82.79 0.015 82.79 0.015 85.019 1.129 C83.686 4.717 82.188 7.966 80.019 11.129 C79.359 11.129 78.699 11.129 78.019 11.129 C77.359 13.109 76.699 15.089 76.019 17.129 C75.359 17.129 74.699 17.129 74.019 17.129 C73.813 17.789 73.606 18.449 73.394 19.129 C71.796 22.616 69.713 25.35 67.359 28.36 C66.019 30.129 66.019 30.129 65.019 32.129 C64.359 32.129 63.699 32.129 63.019 32.129 C62.751 32.934 62.483 33.738 62.206 34.567 C61.814 35.413 61.423 36.258 61.019 37.129 C60.029 37.459 59.039 37.789 58.019 38.129 C56.364 40.121 54.835 42.093 53.331 44.192 C52.916 44.76 52.5 45.328 52.072 45.913 C51.047 47.313 50.032 48.721 49.019 50.129 C48.359 49.799 47.699 49.469 47.019 49.129 C49.139 44.465 51.326 40.595 54.581 36.629 C57.849 32.602 59.338 29.002 61.019 24.129 C61.992 23.103 62.994 22.104 64.019 21.129 C65.339 19.3 66.587 17.434 67.835 15.555 C68.226 15.085 68.616 14.614 69.019 14.129 C69.679 14.129 70.339 14.129 71.019 14.129 C71.328 13.181 71.638 12.232 71.956 11.254 C73.019 8.129 73.019 8.129 74.019 6.129 C73.176 6.292 72.334 6.454 71.466 6.621 C67.879 7.15 64.493 7.256 60.868 7.259 C60.179 7.261 59.491 7.262 58.781 7.264 C56.523 7.268 54.265 7.266 52.007 7.262 C50.431 7.263 48.855 7.264 47.279 7.265 C43.985 7.267 40.691 7.264 37.396 7.26 C33.173 7.254 28.95 7.257 24.726 7.263 C21.476 7.267 18.225 7.266 14.975 7.263 C13.417 7.263 11.859 7.263 10.302 7.266 C8.128 7.268 5.955 7.264 3.782 7.259 C3.163 7.258 3.163 7.258 0.035 7.256 C-2.981 7.129 -2.981 7.129 -5.981 6.129 C-5.434 7.531 -4.868 8.926 -4.294 10.317 C-3.98 11.094 -3.667 11.872 -3.344 12.672 C-1.542 15.921 0.08 17.807 3.019 20.129 C6.151 20.778 9.185 20.642 12.37 20.512 C13.266 20.498 14.162 20.484 15.085 20.469 C17.939 20.421 20.791 20.341 23.644 20.254 C26.504 20.179 29.363 20.111 32.224 20.061 C34.002 20.029 35.779 19.982 37.556 19.918 C38.361 19.901 39.165 19.885 39.994 19.868 C40.701 19.846 41.407 19.825 42.135 19.802 C44.575 20.226 45.454 21.269 47.019 23.129 C45.459 25.34 43.896 27.548 42.331 29.754 C41.896 30.372 41.461 30.989 41.013 31.625 C38.177 35.617 35.199 39.405 32.019 43.129 C31.689 42.469 31.359 41.809 31.019 41.129 C31.349 40.139 31.679 39.149 32.019 38.129 C27.148 42.696 23.127 47.879 19.019 53.129 C15.413 49.691 13.301 46.53 11.019 42.129 C11.019 41.469 11.019 40.809 11.019 40.129 C10.359 40.129 9.699 40.129 9.019 40.129 C9.019 41.779 9.019 43.429 9.019 45.129 C5.812 42.359 3.883 38.803 1.769 35.192 C1.376 34.529 0.984 33.866 0.579 33.183 C-0.612 31.168 -1.797 29.149 -2.981 27.129 C-3.672 25.957 -4.364 24.786 -5.055 23.614 C-10.054 15.104 -10.054 15.104 -11.981 11.129 C-13.963 13.521 -15.814 15.85 -17.407 18.52 C-18.93 21.044 -20.582 23.34 -22.356 25.692 C-26.285 31.035 -29.893 36.553 -33.481 42.129 C-37.455 48.3 -41.503 54.342 -45.887 60.231 C-48.705 64.132 -51.376 68.124 -54.044 72.129 C-54.561 72.905 -55.078 73.68 -55.61 74.479 C-59.053 79.67 -62.381 84.913 -65.579 90.258 C-66.981 92.129 -66.981 92.129 -69.981 93.129 C-70.146 93.459 -70.146 93.459 -70.981 95.129 C-63.721 95.129 -56.461 95.129 -48.981 95.129 C-48.321 93.479 -47.661 91.829 -46.981 90.129 C-45.991 90.129 -45.001 90.129 -43.981 90.129 C-45.731 95.879 -45.731 95.879 -47.981 98.129 C-50.87 98.356 -50.87 98.356 -54.52 98.325 C-55.171 98.321 -55.171 98.321 -58.466 98.305 C-59.846 98.288 -61.226 98.272 -62.606 98.254 C-63.994 98.244 -65.382 98.235 -66.77 98.227 C-70.174 98.203 -73.578 98.17 -76.981 98.129 C-76.651 96.149 -76.321 94.169 -75.981 92.129 C-75.321 92.129 -74.661 92.129 -73.981 92.129 C-72.906 89.477 -71.887 86.846 -70.981 84.129 C-70.321 84.129 -69.661 84.129 -68.981 84.129 C-68.981 83.469 -68.981 82.809 -68.981 82.129 C-68.321 82.129 -67.661 82.129 -66.981 82.129 C-66.899 81.408 -66.816 80.686 -66.731 79.942 C-65.827 76.549 -64.233 74.791 -61.981 72.129 C-61.272 70.818 -60.587 69.492 -59.981 68.129 C-59.321 68.129 -58.661 68.129 -57.981 68.129 C-57.708 67.391 -57.435 66.654 -57.154 65.893 C-56.05 63.292 -54.834 61.218 -53.223 58.907 C-52.684 58.126 -52.144 57.346 -51.588 56.542 C-51.017 55.725 -50.445 54.908 -49.856 54.067 C-48.679 52.365 -47.502 50.664 -46.325 48.961 C-45.753 48.136 -45.18 47.31 -44.591 46.46 C-42.484 43.41 -40.414 40.338 -38.356 37.254 C-37.766 36.37 -37.175 35.486 -36.567 34.575 C-34.979 32.126 -33.478 29.635 -31.981 27.129 C-31.321 26.139 -30.661 25.149 -29.981 24.129 C-29.321 24.129 -28.661 24.129 -27.981 24.129 C-27.321 22.149 -26.661 20.169 -25.981 18.129 C-25.321 18.129 -24.661 18.129 -23.981 18.129 C-23.856 17.694 -23.856 17.694 -23.219 15.493 C-21.923 11.972 -20.347 9.362 -18.169 6.317 C-17.502 5.362 -16.836 4.407 -16.149 3.422 C-11.954 -1.015 -5.74 -0.014 0 0 Z M4.019 26.129 C12.144 42.379 12.144 42.379 17.019 50.129 C19.977 49.808 20.913 49.25 22.913 46.977 C23.546 46.058 24.179 45.139 24.831 44.192 C25.518 43.204 26.205 42.217 26.913 41.2 C27.608 40.187 28.303 39.173 29.019 38.129 C29.703 37.178 30.388 36.227 31.093 35.247 C36.019 28.392 36.019 28.392 36.019 26.129 C25.459 26.129 14.899 26.129 4.019 26.129 Z " fill="#26CCE9" transform="translate(90.981201171875,52.87060546875)"/>
<path d="M0 0 C0 3.413 -0.669 4.395 -2.5 7.188 C-2.964 7.903 -3.428 8.618 -3.906 9.355 C-4.087 9.627 -4.087 9.627 -5 11 C-4.01 11 -3.02 11 -2 11 C-0.176 8.813 -0.176 8.813 1.688 6 C2.31 5.072 2.933 4.144 3.574 3.188 C3.809 2.827 3.809 2.827 5 1 C7.638 3.52 9.818 5.967 11.75 9.062 C12.178 9.734 12.606 10.406 13.047 11.098 C14 13 14 13 14 16 C14.975 17.024 15.982 18.018 17 19 C21 24.486 21 24.486 21 28 C8.667 28 -3.667 28 -16 28 C-16 28.99 -16 29.98 -16 31 C-4.12 31 7.76 31 20 31 C17.618 35.764 14.54 39.63 11.289 43.832 C9.639 46.115 8.227 48.261 6.857 50.698 C6.244 51.788 5.631 52.877 5 54 C17.743 53.893 30.486 53.78 43.229 53.661 C49.146 53.605 55.062 53.552 60.979 53.503 C66.685 53.455 72.391 53.403 78.096 53.347 C80.277 53.327 82.458 53.308 84.639 53.291 C87.685 53.267 90.731 53.237 93.777 53.205 C94.231 53.202 94.231 53.202 96.532 53.188 C102.772 53.114 102.772 53.114 105 52 C104.34 53.32 103.68 54.64 103 56 C70 56 37 56 3 56 C2.67 54.35 2.34 52.7 2 51 C4.312 48.312 4.312 48.312 7 46 C9 44 9 44 9.125 41.375 C9.084 40.591 9.043 39.808 9 39 C9.598 38.938 10.196 38.876 10.812 38.812 C13 38 13 38 16 33 C5.77 33 -4.46 33 -15 33 C-15.66 34.65 -16.32 36.3 -17 38 C-18.324 40.006 -19.657 42.007 -21 44 C-21.33 44.99 -21.66 45.98 -22 47 C-23.333 48.333 -24.667 49.667 -26 51 C-26.196 51.429 -26.196 51.429 -27.191 53.602 C-29 56 -29 56 -32.186 56.568 C-33.469 56.541 -34.752 56.515 -36.074 56.488 C-36.758 56.481 -37.442 56.474 -38.146 56.467 C-40.328 56.439 -42.507 56.376 -44.688 56.312 C-46.167 56.287 -47.647 56.265 -49.127 56.244 C-52.752 56.189 -56.376 56.103 -60 56 C-60.33 55.34 -60.66 54.68 -61 54 C-60.34 53.34 -59.68 52.68 -59 52 C-59 52.66 -59 53.32 -59 54 C-54.942 54.03 -50.887 54.015 -46.83 53.957 C-45.45 53.944 -44.071 53.943 -42.692 53.955 C-31.167 54.043 -31.167 54.043 -28.186 51.379 C-27.078 49.441 -27.078 49.441 -26 46 C-26.99 46 -27.98 46 -29 46 C-29.33 46.825 -29.33 46.825 -31 51 C-38.26 51 -45.52 51 -53 51 C-52.67 50.01 -52.34 49.02 -52 48 C-51.34 48.33 -50.68 48.66 -50 49 C-47.342 49.124 -44.721 49.185 -42.062 49.188 C-41.334 49.2 -40.605 49.212 -39.854 49.225 C-36.029 49.235 -34.256 49.171 -31 47 C-30.031 45.363 -29.07 43.721 -28.16 42.051 C-25.996 38.226 -23.462 34.637 -21 31 C-20.082 29.626 -19.165 28.251 -18.25 26.875 C-7.367 10.551 -7.367 10.551 -6.167 8.752 C-5.389 7.584 -4.614 6.415 -3.841 5.244 C-1.104 1.104 -1.104 1.104 0 0 Z M5 4 C3.492 5.715 3.492 5.715 1.875 7.938 C1.336 8.668 0.797 9.399 0.242 10.152 C-1 12 -1 12 -1 13 C2.63 13.33 6.26 13.66 10 14 C10 9.669 9.034 7.73 7 4 C6.34 4 5.68 4 5 4 Z M-8 22 C-7.67 23.32 -7.34 24.64 -7 26 C1.25 26 9.5 26 18 26 C17 22 17 22 15 20 C12.391 19.586 12.391 19.586 9.25 19.375 C8.737 19.338 8.737 19.338 6.141 19.148 C-3.326 18.701 -3.326 18.701 -8 22 Z " fill="#11547F" transform="translate(73,97)"/>
<path d="M0 0 C28.38 0 56.76 0 86 0 C84.746 3.134 83.539 6.031 82 9 C81.34 9 80.68 9 80 9 C81.875 3.25 81.875 3.25 83 1 C82.157 1.162 81.315 1.325 80.447 1.492 C76.86 2.021 73.474 2.127 69.849 2.129 C69.16 2.131 68.472 2.133 67.762 2.135 C65.504 2.139 63.246 2.136 60.988 2.133 C59.412 2.133 57.836 2.134 56.26 2.136 C52.966 2.137 49.672 2.135 46.378 2.13 C42.154 2.125 37.931 2.128 33.707 2.134 C30.457 2.138 27.206 2.136 23.956 2.134 C22.398 2.133 20.84 2.134 19.283 2.136 C17.109 2.139 14.936 2.135 12.763 2.129 C12.145 2.129 12.145 2.129 9.016 2.127 C6 2 6 2 3 1 C3.547 2.402 4.113 3.796 4.688 5.188 C5.001 5.965 5.314 6.742 5.637 7.543 C7.439 10.792 9.062 12.678 12 15 C15.133 15.649 18.167 15.513 21.352 15.383 C22.247 15.369 23.143 15.354 24.066 15.34 C26.92 15.292 29.772 15.211 32.625 15.125 C35.485 15.05 38.345 14.982 41.205 14.932 C42.983 14.9 44.76 14.852 46.537 14.788 C47.342 14.772 48.146 14.756 48.975 14.739 C49.328 14.728 49.328 14.728 51.116 14.673 C53.556 15.097 54.435 16.14 56 18 C54.441 20.211 52.878 22.418 51.312 24.625 C50.877 25.242 50.442 25.86 49.994 26.496 C47.158 30.488 44.18 34.276 41 38 C40.67 37.34 40.34 36.68 40 36 C40.33 35.01 40.66 34.02 41 33 C36.129 37.566 32.108 42.75 28 48 C24.395 44.561 22.282 41.401 20 37 C20 36.34 20 35.68 20 35 C19.34 35 18.68 35 18 35 C18 36.65 18 38.3 18 40 C14.793 37.229 12.865 33.674 10.75 30.062 C10.357 29.4 9.965 28.737 9.56 28.053 C8.369 26.038 7.184 24.019 6 22 C5.309 20.828 4.617 19.656 3.926 18.484 C-1.073 9.974 -1.073 9.974 -3 6 C-3.66 6 -4.32 6 -5 6 C-4.67 5.01 -4.34 4.02 -4 3 C-2.68 3 -1.36 3 0 3 C0 2.01 0 1.02 0 0 Z M13 21 C21.125 37.25 21.125 37.25 26 45 C28.958 44.679 29.894 44.12 31.895 41.848 C32.527 40.929 33.16 40.009 33.812 39.062 C34.5 38.075 35.187 37.088 35.895 36.07 C36.589 35.057 37.284 34.044 38 33 C38.684 32.049 39.369 31.097 40.074 30.117 C45 23.263 45 23.263 45 21 C34.44 21 23.88 21 13 21 Z " fill="#0C6C93" transform="translate(82,58)"/>
<path d="M0 0 C0.99 0.33 1.98 0.66 3 1 C0.976 6.45 -1.886 10.939 -5.375 15.562 C-9.304 20.905 -12.912 26.424 -16.5 32 C-20.474 38.17 -24.522 44.213 -28.906 50.102 C-31.724 54.003 -34.395 57.995 -37.062 62 C-37.579 62.775 -38.096 63.551 -38.629 64.35 C-42.072 69.54 -45.4 74.783 -48.598 80.129 C-50 82 -50 82 -53 83 C-53.165 83.33 -53.165 83.33 -54 85 C-46.74 85 -39.48 85 -32 85 C-31.34 83.35 -30.68 81.7 -30 80 C-29.01 80 -28.02 80 -27 80 C-28.75 85.75 -28.75 85.75 -31 88 C-33.889 88.227 -33.889 88.227 -37.539 88.195 C-38.19 88.192 -38.19 88.192 -41.484 88.176 C-42.865 88.159 -44.245 88.142 -45.625 88.125 C-47.013 88.115 -48.401 88.106 -49.789 88.098 C-53.193 88.074 -56.596 88.041 -60 88 C-59.67 86.02 -59.34 84.04 -59 82 C-58.34 82 -57.68 82 -57 82 C-55.925 79.348 -54.905 76.716 -54 74 C-53.34 74 -52.68 74 -52 74 C-52 73.34 -52 72.68 -52 72 C-51.34 72 -50.68 72 -50 72 C-49.918 71.278 -49.835 70.556 -49.75 69.812 C-48.845 66.42 -47.252 64.661 -45 62 C-44.291 60.689 -43.605 59.362 -43 58 C-42.34 58 -41.68 58 -41 58 C-40.727 57.262 -40.454 56.524 -40.172 55.764 C-39.069 53.162 -37.853 51.088 -36.242 48.777 C-35.703 47.997 -35.163 47.217 -34.607 46.413 C-34.035 45.596 -33.464 44.779 -32.875 43.938 C-31.697 42.236 -30.52 40.534 -29.344 38.832 C-28.771 38.007 -28.199 37.181 -27.609 36.331 C-25.503 33.28 -23.433 30.208 -21.375 27.125 C-20.785 26.241 -20.194 25.356 -19.586 24.445 C-17.998 21.996 -16.497 19.506 -15 17 C-14.34 16.01 -13.68 15.02 -13 14 C-12.34 14 -11.68 14 -11 14 C-10.34 12.02 -9.68 10.04 -9 8 C-8.34 8 -7.68 8 -7 8 C-7.33 9.65 -7.66 11.3 -8 13 C-7.34 13 -6.68 13 -6 13 C-2.917 9.13 -0.468 4.992 0 0 Z " fill="#0F92AB" transform="translate(74,63)"/>
<path d="M0 0 C0.66 0.33 1.32 0.66 2 1 C1.826 1.244 1.826 1.244 0.946 2.481 C-0.642 4.715 -2.227 6.951 -3.812 9.188 C-4.36 9.956 -4.907 10.725 -5.471 11.518 C-6.002 12.268 -6.534 13.019 -7.082 13.793 C-7.569 14.479 -8.056 15.165 -8.558 15.872 C-10.128 18.189 -11.56 20.599 -13 23 C9.77 23 32.54 23 56 23 C53.512 29.22 51.069 34.49 46 39 C41.007 40.489 36.154 40.29 31 40.074 C29.554 40.054 28.108 40.038 26.662 40.027 C22.879 39.985 19.101 39.877 15.319 39.755 C11.452 39.642 7.583 39.592 3.715 39.537 C-3.859 39.42 -11.429 39.232 -19 39 C-19 38.67 -19 38.34 -19 38 C-9.713 37.215 -0.537 36.961 8.781 37.07 C11.946 37.085 15.111 37.094 18.275 37.102 C20.44 37.117 22.604 37.151 24.768 37.202 C27.941 37.272 31.108 37.271 34.281 37.258 C34.76 37.277 34.76 37.277 37.186 37.373 C40.165 37.321 42.236 37.137 45 36 C48.232 32.648 50.665 29.017 53 25 C52.589 25.001 52.589 25.001 50.508 25.007 C42.768 25.027 35.028 25.042 27.288 25.052 C23.308 25.057 19.329 25.064 15.349 25.075 C11.511 25.086 7.672 25.092 3.834 25.095 C2.367 25.097 0.901 25.1 -0.566 25.106 C-2.615 25.113 -4.665 25.114 -6.714 25.114 C-7.298 25.115 -7.298 25.115 -10.254 25.12 C-13 25 -13 25 -15 24 C-14.705 19.28 -12.382 16.572 -9.559 13.004 C-8.17 11.219 -6.949 9.414 -5.75 7.5 C-5.172 6.675 -4.595 5.85 -4 5 C-3.34 5 -2.68 5 -2 5 C-2 3.68 -2 2.36 -2 1 C-1.34 0.67 -0.68 0.34 0 0 Z " fill="#320899" transform="translate(129,109)"/>
<path d="M0 0 C1.32 0.33 2.64 0.66 4 1 C4 1.66 4 2.32 4 3 C4.99 3.33 5.98 3.66 7 4 C8.362 5.981 9.696 7.981 11 10 C14.412 11.706 18.31 11.054 22.059 10.992 C23.907 10.975 25.755 10.958 27.604 10.941 C30.525 10.91 33.446 10.875 36.366 10.829 C39.181 10.786 41.994 10.763 44.809 10.742 C45.684 10.724 46.559 10.705 47.46 10.686 C47.867 10.684 47.867 10.684 49.927 10.675 C50.643 10.666 51.359 10.656 52.096 10.646 C54.537 11.1 55.429 12.134 57 14 C54.192 16.964 51.817 19.445 48 21 C48.33 19.35 48.66 17.7 49 16 C37.12 16 25.24 16 13 16 C14.98 19.96 16.96 23.92 19 28 C18.67 28.66 18.34 29.32 18 30 C14.372 28.791 14.184 28.046 12.441 24.773 C12.207 24.34 12.207 24.34 11.021 22.145 C10.781 21.688 10.781 21.688 9.562 19.375 C8.606 17.591 7.649 15.807 6.691 14.023 C6.237 13.167 5.782 12.311 5.313 11.429 C4.135 9.25 2.909 7.111 1.652 4.977 C0 2 0 2 0 0 Z " fill="#2B97D5" transform="translate(81,62)"/>
<path d="M0 0 C0 4.633 -3.138 7.655 -5.801 11.262 C-9 15.7 -9 15.7 -9 19 C-6.03 15.04 -3.06 11.08 0 7 C0.33 7.66 0.66 8.32 1 9 C0.526 9.578 0.051 10.155 -0.438 10.75 C-2 13 -2 13 -2.438 15 C-3.223 17.793 -4.936 18.968 -7 21 C-10.083 24.601 -13.042 28.296 -16 32 C-16.571 32.692 -17.142 33.384 -17.73 34.098 C-19.125 35.875 -19.125 35.875 -21 39 C-20.617 41.695 -20.617 41.695 -20 44 C-12.155 44.159 -4.376 43.797 3.448 43.268 C4.238 43.219 5.027 43.171 5.84 43.121 C6.545 43.074 7.25 43.027 7.976 42.978 C10 43 10 43 11.891 43.491 C14.614 44.148 17.102 44.076 19.902 44.027 C21.04 44.015 22.178 44.003 23.35 43.99 C25.738 43.955 28.126 43.916 30.514 43.873 C31.653 43.862 32.791 43.851 33.965 43.84 C35.002 43.823 36.04 43.806 37.109 43.789 C40.12 44.009 42.278 44.731 45 46 C41.013 54.281 41.013 54.281 38.062 56.375 C35.045 58.753 33.788 61.615 32 65 C31.34 65 30.68 65 30 65 C31.656 61.412 33.782 58.266 36 55 C37.98 52.03 39.96 49.06 42 46 C19.23 46 -3.54 46 -27 46 C-25.53 42.325 -24.66 40.261 -22.398 37.301 C-21.909 36.649 -21.419 35.998 -20.914 35.326 C-20.66 34.994 -20.66 34.994 -19.375 33.312 C-18.358 31.979 -17.344 30.641 -16.336 29.301 C-15.888 28.715 -15.44 28.129 -14.978 27.525 C-14 26 -14 26 -14 24 C-14.66 24.33 -14.66 24.33 -18 26 C-15.506 19.477 -13.013 14.901 -8 10 C-5.275 6.713 -2.631 3.363 0 0 Z M-24 43 C-24.33 43.66 -24.66 44.32 -25 45 C-24.34 45 -23.68 45 -23 45 C-23.33 44.34 -23.66 43.68 -24 43 Z " fill="#30098E" transform="translate(149,83)"/>
<path d="M0 0 C0.33 0.99 0.66 1.98 1 3 C-0.064 4.961 -0.064 4.961 -1.711 7.16 C-2.296 7.954 -2.881 8.747 -3.484 9.564 C-4.108 10.389 -4.732 11.213 -5.375 12.062 C-6.592 13.698 -7.808 15.335 -9.023 16.973 C-9.569 17.697 -10.115 18.422 -10.677 19.168 C-12 21 -12 21 -13 23 C8.78 23 30.56 23 53 23 C53 24.32 53 25.64 53 27 C29.24 26.67 5.48 26.34 -19 26 C-17.914 21.657 -16.039 19.15 -13.312 15.75 C-12.402 14.594 -11.492 13.438 -10.582 12.281 C-10.139 11.722 -9.697 11.162 -9.241 10.586 C-7.143 7.905 -5.15 5.149 -3.156 2.391 C-2 1 -2 1 0 0 Z " fill="#7530D6" transform="translate(135,106)"/>
<path d="M0 0 C2.638 2.52 4.818 4.967 6.75 8.062 C7.178 8.734 7.606 9.406 8.047 10.098 C9 12 9 12 9 15 C9.975 16.024 10.982 17.018 12 18 C16 23.486 16 23.486 16 27 C11.374 27.025 6.747 27.043 2.121 27.055 C0.547 27.06 -1.026 27.067 -2.599 27.075 C-4.863 27.088 -7.127 27.093 -9.391 27.098 C-10.092 27.103 -10.793 27.108 -11.515 27.113 C-14.825 27.114 -17.836 27.025 -21 26 C-19.62 23.697 -18.223 21.409 -16.812 19.125 C-16.425 18.474 -16.038 17.823 -15.639 17.152 C-13.117 13.11 -11.564 11.638 -7 10 C-4.98 7.617 -4.98 7.617 -3.188 4.875 C-2.583 3.965 -1.978 3.055 -1.355 2.117 C-1.132 1.768 -1.132 1.768 0 0 Z M0 3 C-1.508 4.715 -1.508 4.715 -3.125 6.938 C-3.664 7.668 -4.203 8.399 -4.758 9.152 C-6 11 -6 11 -6 12 C-2.37 12.33 1.26 12.66 5 13 C5 8.669 4.034 6.73 2 3 C1.34 3 0.68 3 0 3 Z M-13 21 C-12.67 22.32 -12.34 23.64 -12 25 C-3.75 25 4.5 25 13 25 C12 21 12 21 10 19 C7.391 18.586 7.391 18.586 4.25 18.375 C3.737 18.338 3.737 18.338 1.141 18.148 C-8.326 17.701 -8.326 17.701 -13 21 Z " fill="#4E50C7" transform="translate(78,98)"/>
<path d="M0 0 C0 3.208 -0.348 3.917 -2.012 6.512 C-2.226 6.85 -2.226 6.85 -3.311 8.561 C-3.765 9.262 -4.219 9.964 -4.688 10.688 C-5.123 11.37 -5.558 12.053 -6.006 12.756 C-7.807 15.582 -9.611 18.406 -11.446 21.211 C-11.902 21.919 -12.358 22.626 -12.828 23.355 C-13.244 23.993 -13.659 24.63 -14.087 25.286 C-15.306 27.575 -15.067 29.443 -15 32 C-16.323 34.007 -17.658 36.006 -19 38 C-19.54 39.528 -20.039 41.071 -20.5 42.625 C-21.667 46.418 -22.976 48.354 -26 51 C-26.195 51.426 -26.195 51.426 -27.183 53.579 C-29 56 -29 56 -32.186 56.568 C-33.469 56.541 -34.752 56.515 -36.074 56.488 C-36.758 56.481 -37.442 56.474 -38.146 56.467 C-40.328 56.439 -42.507 56.376 -44.688 56.312 C-46.167 56.287 -47.647 56.265 -49.127 56.244 C-52.752 56.189 -56.376 56.103 -60 56 C-60.33 55.34 -60.66 54.68 -61 54 C-60.34 53.34 -59.68 52.68 -59 52 C-59 52.66 -59 53.32 -59 54 C-54.942 54.03 -50.887 54.015 -46.83 53.957 C-45.45 53.944 -44.071 53.943 -42.692 53.955 C-31.167 54.043 -31.167 54.043 -28.186 51.379 C-27.078 49.441 -27.078 49.441 -26 46 C-26.99 46 -27.98 46 -29 46 C-29.33 46.825 -29.33 46.825 -31 51 C-38.26 51 -45.52 51 -53 51 C-52.67 50.01 -52.34 49.02 -52 48 C-51.34 48.33 -50.68 48.66 -50 49 C-47.342 49.124 -44.721 49.185 -42.062 49.188 C-41.334 49.2 -40.605 49.212 -39.854 49.225 C-36.029 49.235 -34.256 49.171 -31 47 C-30.031 45.363 -29.07 43.721 -28.16 42.051 C-25.996 38.226 -23.462 34.637 -21 31 C-20.082 29.626 -19.165 28.251 -18.25 26.875 C-7.367 10.551 -7.367 10.551 -6.167 8.752 C-5.389 7.584 -4.614 6.415 -3.841 5.244 C-1.104 1.104 -1.104 1.104 0 0 Z " fill="#3A6DC8" transform="translate(73,97)"/>
<path d="M0 0 C0.99 0 1.98 0 3 0 C1.169 5.86 -2.85 10.383 -6.691 15.059 C-8 17 -8 17 -8 20 C-10.868 21.626 -12.912 22.249 -16.201 22.241 C-17.032 22.243 -17.862 22.246 -18.717 22.249 C-19.619 22.242 -20.521 22.234 -21.45 22.227 C-22.407 22.227 -23.363 22.228 -24.348 22.228 C-27.508 22.227 -30.668 22.211 -33.828 22.195 C-36.02 22.192 -38.211 22.189 -40.403 22.187 C-46.17 22.179 -51.937 22.159 -57.704 22.137 C-63.589 22.117 -69.474 22.108 -75.359 22.098 C-86.906 22.076 -98.453 22.042 -110 22 C-110 21.34 -110 20.68 -110 20 C-108.82 20.019 -107.639 20.037 -106.423 20.056 C-95.271 20.222 -84.121 20.314 -72.968 20.334 C-67.234 20.347 -61.503 20.385 -55.77 20.483 C-50.232 20.577 -44.697 20.602 -39.158 20.58 C-37.051 20.584 -34.943 20.612 -32.836 20.665 C-16.709 21.05 -16.709 21.05 -12.127 17.582 C-8.582 13.828 -6.305 9.584 -4 5 C-3.34 4.34 -2.68 3.68 -2 3 C-1.67 3.165 -1.67 3.165 0 4 C0 2.68 0 1.36 0 0 Z " fill="#3486D5" transform="translate(188,129)"/>
<path d="M0 0 C1.32 0 2.64 0 4 0 C6.635 5.269 5.62 12.715 4.129 18.211 C1.598 24.667 -1.736 31.337 -7 36 C-11 36 -11 36 -13 35 C-12.383 31.646 -11.144 29.598 -9.125 26.875 C-4.277 19.771 -2.752 12.531 -2.309 4.031 C-2 2 -2 2 0 0 Z " fill="#7313BB" transform="translate(170,80)"/>
<path d="M0 0 C0.66 0.99 1.32 1.98 2 3 C1.602 3.568 1.203 4.137 0.793 4.723 C-2.402 9.379 -4.89 13.775 -7 19 C-9.526 23.842 -9.526 23.842 -13 25 C-13.33 25.66 -13.66 26.32 -14 27 C-6.74 27 0.52 27 8 27 C8.66 25.35 9.32 23.7 10 22 C10.99 22 11.98 22 13 22 C11.25 27.75 11.25 27.75 9 30 C6.111 30.227 6.111 30.227 2.461 30.195 C1.81 30.192 1.81 30.192 -1.484 30.176 C-2.865 30.159 -4.245 30.142 -5.625 30.125 C-7.013 30.115 -8.401 30.106 -9.789 30.098 C-13.193 30.074 -16.596 30.041 -20 30 C-19.67 28.02 -19.34 26.04 -19 24 C-18.34 24 -17.68 24 -17 24 C-15.925 21.348 -14.905 18.716 -14 16 C-13.34 16 -12.68 16 -12 16 C-12 15.34 -12 14.68 -12 14 C-11.01 14 -10.02 14 -9 14 C-8.745 13.448 -8.49 12.897 -8.227 12.328 C-6.807 9.634 -5.139 7.232 -3.375 4.75 C-2.743 3.858 -2.112 2.966 -1.461 2.047 C-1.22 1.709 -1.22 1.709 0 0 Z " fill="#19D1EF" transform="translate(34,121)"/>
<path d="M0 0 C0.165 0.495 0.165 0.495 1 3 C0.01 3.33 -0.98 3.66 -2 4 C-3.188 7.062 -3.188 7.062 -4 10 C-4.66 10 -5.32 10 -6 10 C-6.103 10.33 -6.103 10.33 -6.625 12 C-8.223 15.487 -10.306 18.221 -12.66 21.23 C-14 23 -14 23 -15 25 C-15.66 25 -16.32 25 -17 25 C-17.268 25.804 -17.536 26.609 -17.812 27.438 C-18.204 28.283 -18.596 29.129 -19 30 C-19.99 30.33 -20.98 30.66 -22 31 C-23.655 32.992 -25.183 34.963 -26.688 37.062 C-26.895 37.346 -26.895 37.346 -27.947 38.783 C-28.971 40.184 -29.987 41.591 -31 43 C-31.66 42.67 -32.32 42.34 -33 42 C-30.88 37.336 -28.693 33.466 -25.438 29.5 C-22.17 25.473 -20.68 21.873 -19 17 C-18.027 15.974 -17.025 14.974 -16 14 C-14.68 12.171 -13.432 10.304 -12.184 8.426 C-11.793 7.955 -11.402 7.485 -11 7 C-10.34 7 -9.68 7 -9 7 C-9.33 8.98 -9.66 10.96 -10 13 C-8.991 11.736 -7.993 10.464 -7 9.188 C-6.443 8.48 -5.886 7.772 -5.312 7.043 C-4 5 -4 5 -4 2 C-2.68 1.34 -1.36 0.68 0 0 Z " fill="#2AA2D3" transform="translate(171,60)"/>
<path d="M0 0 C0.66 0 1.32 0 2 0 C0.892 11.084 -7.112 18.662 -15 26 C-15.66 26 -16.32 26 -17 26 C-16.786 25.466 -16.572 24.933 -16.352 24.383 C-15.116 20.545 -14.49 18.124 -16.203 14.352 C-17.293 12.656 -18.43 10.989 -19.617 9.359 C-21.198 6.661 -21.272 5.074 -21 2 C-20.34 2 -19.68 2 -19 2 C-17.716 3.952 -16.521 5.963 -15.375 8 C-14.743 9.114 -14.112 10.227 -13.461 11.375 C-13.22 11.808 -13.22 11.808 -12 14 C-8.015 10.256 -4.791 6.197 -1.551 1.793 C-1.295 1.497 -1.295 1.497 0 0 Z " fill="#3141AA" transform="translate(121,91)"/>
<path d="M0 0 C7.131 8.606 7.131 8.606 6.812 12 C6.544 12.66 6.276 13.32 6 14 C5.825 14.454 5.825 14.454 4.938 16.75 C4.628 17.493 4.319 18.235 4 19 C4.99 18.175 4.99 18.175 10 14 C8.666 17.795 6.988 20.526 4.438 23.625 C2.325 26.198 1.061 27.817 0 31 C-0.66 31 -1.32 31 -2 31 C-2.206 31.681 -2.412 32.361 -2.625 33.062 C-5.196 38.556 -9.66 42.827 -14 47 C-12.285 41.756 -8.97 37.932 -5.545 33.729 C-1.426 28.557 -1.426 28.557 -1 25 C-2.32 24.67 -3.64 24.34 -5 24 C-5 22.68 -5 21.36 -5 20 C-5.66 20 -6.32 20 -7 20 C-6.67 18.68 -6.34 17.36 -6 16 C-5.546 16.66 -5.093 17.32 -4.625 18 C-4.089 18.66 -3.552 19.32 -3 20 C-2.34 20 -1.68 20 -1 20 C-0.505 19.175 -0.01 18.35 0.5 17.5 C0.995 16.675 1.49 15.85 2 15 C2.66 15 3.32 15 4 15 C3.525 10.156 2.605 7.078 0 3 C0 2.01 0 1.02 0 0 Z " fill="#3A38A2" transform="translate(100,98)"/>
<path d="M0 0 C0 4.633 -3.138 7.655 -5.801 11.262 C-9 15.7 -9 15.7 -9 19 C-6.03 15.04 -3.06 11.08 0 7 C0.33 7.66 0.66 8.32 1 9 C0.526 9.578 0.051 10.155 -0.438 10.75 C-2 13 -2 13 -2.438 15 C-3.223 17.793 -4.934 18.973 -7 21 C-13.348 28.255 -18.807 35.893 -24 44 C-23.67 44.66 -23.34 45.32 -23 46 C-24.32 46 -25.64 46 -27 46 C-25.412 41.053 -22.487 37.385 -19.375 33.312 C-18.358 31.979 -17.344 30.641 -16.336 29.301 C-15.888 28.715 -15.44 28.129 -14.978 27.525 C-14 26 -14 26 -14 24 C-14.66 24.33 -14.66 24.33 -18 26 C-15.506 19.477 -13.013 14.901 -8 10 C-5.275 6.713 -2.631 3.363 0 0 Z " fill="#121075" transform="translate(149,83)"/>
<path d="M0 0 C0.895 -0.002 1.79 -0.004 2.712 -0.005 C5.662 -0.01 8.612 -0.007 11.562 -0.003 C13.612 -0.004 15.663 -0.005 17.714 -0.006 C22.007 -0.008 26.3 -0.006 30.593 -0.001 C36.104 0.005 41.616 0.001 47.128 -0.005 C51.359 -0.008 55.591 -0.007 59.823 -0.004 C61.856 -0.004 63.889 -0.005 65.922 -0.007 C68.757 -0.009 71.591 -0.006 74.426 0 C74.848 -0.001 74.848 -0.001 76.987 -0.006 C82.79 0.015 82.79 0.015 85.019 1.129 C83.269 6.004 83.269 6.004 81.019 7.129 C81.679 5.479 82.339 3.829 83.019 2.129 C51.339 2.129 19.659 2.129 -12.981 2.129 C-13.641 3.449 -14.301 4.769 -14.981 6.129 C-16.126 8.038 -17.294 9.934 -18.481 11.817 C-19.09 12.79 -19.698 13.763 -20.325 14.766 C-21.981 17.129 -21.981 17.129 -23.981 18.129 C-22.671 13.595 -20.913 10.152 -18.169 6.317 C-17.835 5.839 -17.835 5.839 -16.149 3.422 C-11.954 -1.015 -5.74 -0.014 0 0 Z " fill="#045969" transform="translate(90.981201171875,52.87060546875)"/>
<path d="M0 0 C0.33 0.66 0.66 1.32 1 2 C1.99 1.835 2.98 1.67 4 1.5 C10.949 0.606 18.009 0.924 25 1 C25 1.66 25 2.32 25 3 C46.12 3 67.24 3 89 3 C89 3.33 89 3.66 89 4 C59.3 4 29.6 4 -1 4 C-0.67 2.68 -0.34 1.36 0 0 Z " fill="#4432A0" transform="translate(85,145)"/>
<path d="M0 0 C1.237 0.007 2.475 0.014 3.749 0.021 C7.031 0.045 10.312 0.09 13.594 0.145 C16.945 0.196 20.297 0.219 23.648 0.244 C30.219 0.299 36.789 0.383 43.359 0.488 C43.359 0.818 43.359 1.148 43.359 1.488 C26.199 1.818 9.039 2.148 -8.641 2.488 C-8.641 3.478 -8.641 4.468 -8.641 5.488 C-9.259 5.612 -9.878 5.736 -10.516 5.863 C-12.641 6.488 -12.641 6.488 -14.641 8.488 C-15.301 8.158 -15.961 7.828 -16.641 7.488 C-16.703 8.499 -16.764 9.51 -16.828 10.551 C-17.449 15.162 -19.786 17.902 -22.641 21.488 C-23.631 21.158 -24.621 20.828 -25.641 20.488 C-24.287 16.737 -22.584 13.728 -20.266 10.488 C-19.68 9.663 -19.095 8.838 -18.492 7.988 C-18.187 7.576 -18.187 7.576 -16.641 5.488 C-16.422 5.055 -16.422 5.055 -15.315 2.863 C-10.862 -1.091 -5.736 -0.123 0 0 Z " fill="#19D5F6" transform="translate(90.640625,55.51171875)"/>
<path d="M0 0 C2.075 -0.032 4.151 -0.036 6.227 -0.016 C7.268 -0.052 8.31 -0.088 9.383 -0.125 C16.801 -0.125 16.801 -0.125 19.692 2.24 C21.922 5.222 22.852 6.96 22.852 10.734 C11.962 10.734 1.072 10.734 -10.148 10.734 C-9.488 9.084 -8.828 7.434 -8.148 5.734 C-7.847 4.822 -7.545 3.909 -7.234 2.969 C-4.667 0.218 -3.674 0.296 0 0 Z M-6.148 4.734 C-5.818 6.054 -5.488 7.374 -5.148 8.734 C3.102 8.734 11.352 8.734 19.852 8.734 C18.852 4.734 18.852 4.734 16.852 2.734 C14.242 2.32 14.242 2.32 11.102 2.109 C10.589 2.072 10.589 2.072 7.992 1.883 C-1.475 1.435 -1.475 1.435 -6.148 4.734 Z " fill="#11227E" transform="translate(71.1484375,114.265625)"/>
<path d="M0 0 C0.165 0.33 0.165 0.33 1 2 C-0.391 3.9 -1.787 5.795 -3.188 7.688 C-3.965 8.743 -4.742 9.799 -5.543 10.887 C-7.886 13.856 -10.276 16.392 -13 19 C-12.67 17.35 -12.34 15.7 -12 14 C-16.871 18.566 -20.892 23.75 -25 29 C-28.603 25.556 -30.779 22.442 -33 18 C-32.67 17.34 -32.34 16.68 -32 16 C-31.161 17.288 -30.329 18.581 -29.5 19.875 C-29.036 20.594 -28.572 21.314 -28.094 22.055 C-27 24 -27 24 -27 26 C-23.142 24.714 -22.407 23.07 -20.125 19.75 C-17.328 15.792 -14.581 12.291 -11 9 C-10.072 8.072 -9.144 7.144 -8.188 6.188 C-7.827 5.827 -7.827 5.827 -6 4 C-6 4.66 -6 5.32 -6 6 C-5.196 5.196 -4.391 4.391 -3.562 3.562 C-2.375 2.375 -1.188 1.188 0 0 Z " fill="#2170B7" transform="translate(135,77)"/>
<path d="M0 0 C0.66 0 1.32 0 2 0 C5.991 5.565 9.036 11.843 12 18 C11.34 18 10.68 18 10 18 C9.67 18.66 9.34 19.32 9 20 C8.518 19.145 8.036 18.291 7.539 17.41 C6.907 16.305 6.276 15.201 5.625 14.062 C4.999 12.96 4.372 11.858 3.727 10.723 C2 8 2 8 0 7 C-2.31 10.63 -4.62 14.26 -7 18 C-8.32 17.34 -9.64 16.68 -11 16 C-9.731 14.082 -8.459 12.166 -7.188 10.25 C-6.48 9.183 -5.772 8.115 -5.043 7.016 C-1.449 1.711 -1.449 1.711 0 0 Z " fill="#5844C9" transform="translate(78,92)"/>
<path d="M0 0 C28.05 0 56.1 0 85 0 C83.746 3.134 82.539 6.031 81 9 C80.34 9 79.68 9 79 9 C80.875 3.25 80.875 3.25 82 1 C81.157 1.162 80.315 1.325 79.447 1.492 C75.86 2.021 72.474 2.127 68.849 2.129 C68.16 2.131 67.472 2.133 66.762 2.135 C64.504 2.139 62.246 2.136 59.988 2.133 C58.412 2.133 56.836 2.134 55.26 2.136 C51.966 2.137 48.672 2.135 45.378 2.13 C41.154 2.125 36.931 2.128 32.707 2.134 C29.457 2.138 26.206 2.136 22.956 2.134 C21.398 2.133 19.84 2.134 18.283 2.136 C16.109 2.139 13.936 2.135 11.763 2.129 C11.145 2.129 11.145 2.129 8.016 2.127 C5 2 5 2 2 1 C2.33 2.98 2.66 4.96 3 7 C0 3.375 0 3.375 0 0 Z " fill="#005571" transform="translate(83,58)"/>
<path d="M0 0 C1.32 0.33 2.64 0.66 4 1 C4 1.66 4 2.32 4 3 C4.99 3.33 5.98 3.66 7 4 C8.098 6.25 8.098 6.25 9.062 9 C10.795 13.897 10.795 13.897 13 15 C14 17.109 14 17.109 15 19.75 C15.33 20.611 15.66 21.472 16 22.359 C16.33 23.231 16.66 24.102 17 25 C17.663 26.668 18.329 28.335 19 30 C17.166 29.764 17.166 29.764 15 29 C13.6 27.162 13.6 27.162 12.344 24.773 C12.111 24.34 12.111 24.34 10.934 22.145 C10.461 21.231 9.987 20.317 9.5 19.375 C8.552 17.591 7.605 15.807 6.656 14.023 C6.208 13.167 5.759 12.311 5.297 11.429 C4.131 9.245 2.912 7.109 1.656 4.977 C0 2 0 2 0 0 Z " fill="#24A8DD" transform="translate(81,62)"/>
<path d="M0 0 C0.375 0.01 0.375 0.01 2.273 0.063 C3.046 0.068 3.818 0.074 4.614 0.08 C7.081 0.102 9.545 0.152 12.011 0.203 C13.684 0.223 15.356 0.242 17.029 0.258 C21.128 0.302 25.226 0.371 29.324 0.453 C27.575 4.092 25.438 7.156 23.011 10.391 C22.252 11.41 21.493 12.43 20.711 13.481 C18.387 16.375 15.994 18.887 13.324 21.453 C14.964 16.785 14.964 16.785 16.949 14.953 C18.324 13.453 18.324 13.453 18.511 10.766 C18.449 10.003 18.388 9.239 18.324 8.453 C18.922 8.391 19.52 8.329 20.136 8.266 C22.324 7.453 22.324 7.453 25.324 2.453 C15.094 2.453 4.864 2.453 -5.676 2.453 C-6.336 4.103 -6.996 5.753 -7.676 7.453 C-8.666 8.113 -9.656 8.773 -10.676 9.453 C-8.415 3.191 -7.207 -0.003 0 0 Z " fill="#061381" transform="translate(63.67619323730469,127.54681396484375)"/>
<path d="M0 0 C9.9 0 19.8 0 30 0 C30 1.32 30 2.64 30 4 C23.565 3.835 23.565 3.835 -9 3 C-9 2.67 -9 2.34 -9 2 C-7.515 1.835 -7.515 1.835 0 1 C0 0.67 0 0.34 0 0 Z " fill="#6541D1" transform="translate(158,129)"/>
<path d="M0 0 C0.99 0.33 1.98 0.66 3 1 C0.823 6.86 -2.412 11.7 -6.062 16.75 C-6.755 17.714 -7.447 18.678 -8.16 19.672 C-10 22 -10 22 -12 23 C-11.691 22.237 -11.381 21.474 -11.062 20.688 C-10.321 18.812 -9.638 16.913 -9 15 C-13.851 19.41 -17.348 24.58 -21 30 C-21 26.638 -20.33 25.435 -18.688 22.562 C-18.258 21.801 -17.829 21.039 -17.387 20.254 C-16.028 18.046 -14.679 15.976 -13 14 C-12.34 14 -11.68 14 -11 14 C-10.34 12.02 -9.68 10.04 -9 8 C-8.34 8 -7.68 8 -7 8 C-7.33 9.65 -7.66 11.3 -8 13 C-7.34 13 -6.68 13 -6 13 C-2.917 9.13 -0.468 4.992 0 0 Z " fill="#0EA2A6" transform="translate(74,63)"/>
<path d="M0 0 C1 2 1 2 0.312 4.375 C-1.11 7.221 -2.729 8.798 -5 11 C-5.196 11.428 -5.196 11.428 -6.187 13.594 C-8 16 -8 16 -11.186 16.568 C-12.469 16.541 -13.752 16.515 -15.074 16.488 C-15.758 16.481 -16.442 16.474 -17.146 16.467 C-19.328 16.439 -21.507 16.376 -23.688 16.312 C-25.167 16.287 -26.647 16.265 -28.127 16.244 C-31.752 16.189 -35.376 16.103 -39 16 C-39.33 15.34 -39.66 14.68 -40 14 C-39.34 13.34 -38.68 12.68 -38 12 C-38 12.66 -38 13.32 -38 14 C-12.669 15.151 -12.669 15.151 -6.743 11.677 C-3.337 8.342 -1.512 4.473 0 0 Z " fill="#0B618A" transform="translate(52,137)"/>
<path d="M0 0 C0 3.106 -0.539 4.353 -2 7 C-2.66 7 -3.32 7 -4 7 C-4.268 7.804 -4.536 8.609 -4.812 9.438 C-5.204 10.283 -5.596 11.129 -6 12 C-6.99 12.33 -7.98 12.66 -9 13 C-10.655 14.992 -12.183 16.963 -13.688 19.062 C-13.895 19.346 -13.895 19.346 -14.947 20.783 C-15.971 22.184 -16.987 23.591 -18 25 C-18.66 24.67 -19.32 24.34 -20 24 C-17.091 17.601 -13.464 12.418 -9 7 C-8.67 7.66 -8.34 8.32 -8 9 C-5.068 6.147 -2.357 3.349 0 0 Z " fill="#2072B3" transform="translate(158,78)"/>
<path d="M0 0 C0.33 0.99 0.66 1.98 1 3 C-0.048 4.961 -0.048 4.961 -1.676 7.16 C-2.257 7.954 -2.837 8.747 -3.436 9.564 C-4.055 10.389 -4.674 11.213 -5.312 12.062 C-5.92 12.891 -6.528 13.719 -7.154 14.572 C-11.611 20.611 -11.611 20.611 -14 23 C-14.859 21.012 -14.859 21.012 -15 18 C-13.421 15.013 -11.35 12.45 -9.25 9.812 C-8.698 9.089 -8.147 8.365 -7.578 7.619 C-5.165 4.502 -3.314 2.21 0 0 Z " fill="#544DCA" transform="translate(135,106)"/>
<path d="M0 0 C0.33 0 0.66 0 1 0 C1.949 7.119 -1.163 12.137 -5 18 C-6.699 19.828 -6.699 19.828 -8 21 C-8.99 20.67 -9.98 20.34 -11 20 C-10.711 19.443 -10.423 18.886 -10.125 18.312 C-9 16 -9 16 -8 13.438 C-6.727 10.334 -4.858 7.787 -3 5 C-2.484 4.113 -1.969 3.226 -1.438 2.312 C-1.2 1.931 -1.2 1.931 0 0 Z " fill="#8F1DDF" transform="translate(170,94)"/>
<path d="M0 0 C2.396 -0.054 4.791 -0.094 7.188 -0.125 C7.524 -0.133 7.524 -0.133 9.229 -0.176 C13.288 -0.215 16.35 0.2 20 2 C16.013 10.281 16.013 10.281 13.062 12.375 C10.045 14.753 8.788 17.615 7 21 C6.34 21 5.68 21 5 21 C6.651 17.424 8.793 14.247 11 11 C12.085 9.376 13.168 7.751 14.25 6.125 C15.157 4.764 16.065 3.403 17 2 C11.72 2 6.44 2 1 2 C0.67 1.34 0.34 0.68 0 0 Z " fill="#1025A1" transform="translate(174,127)"/>
<path d="M0 0 C0.33 0.99 0.66 1.98 1 3 C11.23 3 21.46 3 32 3 C32 3.66 32 4.32 32 5 C26.225 5.165 26.225 5.165 -3 6 C-3 3 -3 3 -1.5 1.312 C-1.252 1.096 -1.252 1.096 0 0 Z " fill="#436EDA" transform="translate(60,122)"/>
<path d="M0 0 C0.99 0 1.98 0 3 0 C1.169 5.86 -2.85 10.383 -6.691 15.059 C-8 17 -8 17 -8 20 C-9.875 20.625 -9.875 20.625 -12 21 C-12.66 20.34 -13.32 19.68 -14 19 C-12.377 16.707 -10.752 14.415 -9.125 12.125 C-8.665 11.474 -8.205 10.823 -7.73 10.152 C-7.286 9.527 -6.841 8.902 -6.383 8.258 C-5.974 7.682 -5.566 7.106 -5.145 6.512 C-4 5 -4 5 -2 3 C-1.34 3.33 -0.68 3.66 0 4 C0 2.68 0 1.36 0 0 Z " fill="#386BC0" transform="translate(188,129)"/>
<path d="M0 0 C0.66 0 1.32 0 2 0 C1.585 5.39 -1.519 9.061 -4.562 13.312 C-5.083 14.053 -5.603 14.794 -6.139 15.557 C-7.418 17.376 -8.706 19.191 -10 21 C-10.33 20.34 -10.66 19.68 -11 19 C-11.66 18.67 -12.32 18.34 -13 18 C-11.396 15.75 -9.792 13.5 -8.188 11.25 C-7.736 10.616 -7.284 9.982 -6.818 9.328 C-5.94 8.098 -5.06 6.869 -4.177 5.643 C-3.205 4.287 -2.251 2.918 -1.301 1.547 C-0.872 1.036 -0.442 0.526 0 0 Z " fill="#22CAE8" transform="translate(63,78)"/>
<path d="M0 0 C0 4.612 -3.125 7.602 -5.801 11.174 C-8.218 14.507 -9 15.746 -9 20 C-10.812 22.75 -10.812 22.75 -13 25 C-13.99 25 -14.98 25 -16 25 C-16.66 25.33 -17.32 25.66 -18 26 C-15.506 19.477 -13.013 14.901 -8 10 C-5.275 6.713 -2.631 3.363 0 0 Z " fill="#3446AC" transform="translate(149,83)"/>
<path d="M0 0 C3.685 3.29 5.779 6.637 8 11 C8 11.99 8 12.98 8 14 C2.72 14 -2.56 14 -8 14 C-6.434 9.303 -5.726 7.22 -2.875 3.625 C-2.336 2.937 -1.797 2.248 -1.242 1.539 C-1.037 1.285 -1.037 1.285 0 0 Z M0 3 C-1.508 4.715 -1.508 4.715 -3.125 6.938 C-3.664 7.668 -4.203 8.399 -4.758 9.152 C-6 11 -6 11 -6 12 C-2.37 12.33 1.26 12.66 5 13 C5 8.669 4.034 6.73 2 3 C1.34 3 0.68 3 0 3 Z " fill="#1B0A7E" transform="translate(78,98)"/>
<path d="M0 0 C0.632 0.491 1.264 0.982 1.916 1.488 C6.159 3.568 9.696 3.322 14.352 3.188 C14.799 3.182 14.799 3.182 17.066 3.153 C19.92 3.117 22.772 3.061 25.625 3 C29.388 2.92 33.151 2.86 36.914 2.812 C37.78 2.788 38.645 2.763 39.537 2.737 C40.342 2.727 41.146 2.717 41.975 2.707 C42.682 2.691 43.388 2.676 44.116 2.659 C46.549 3.099 47.436 4.144 49 6 C48.34 6.33 47.68 6.66 47 7 C47 6.34 47 5.68 47 5 C32.15 5 17.3 5 2 5 C1.34 3.35 0.68 1.7 0 0 Z " fill="#0E4E73" transform="translate(89,70)"/>
<path d="M0 0 C0.33 0.66 0.66 1.32 1 2 C0.151 3.756 0.151 3.756 -1.203 5.844 C-1.689 6.595 -2.175 7.347 -2.676 8.121 C-3.195 8.906 -3.715 9.691 -4.25 10.5 C-4.754 11.285 -5.258 12.07 -5.777 12.879 C-9.606 18.737 -9.606 18.737 -13 21 C-12.67 19.845 -12.67 19.845 -11 14 C-11.66 14.33 -11.66 14.33 -15 16 C-13.688 12.063 -12.081 9.773 -9 7 C-9 8.32 -9 9.64 -9 11 C-8.67 11.33 -8.34 11.66 -8 12 C-5.36 8.04 -2.72 4.08 0 0 Z " fill="#03708E" transform="translate(61,86)"/>
<path d="M0 0 C0.66 0.99 1.32 1.98 2 3 C0.381 5.483 -1.245 7.961 -2.875 10.438 C-3.335 11.145 -3.795 11.852 -4.27 12.58 C-4.714 13.254 -5.159 13.927 -5.617 14.621 C-6.026 15.244 -6.434 15.867 -6.855 16.51 C-8 18 -8 18 -10 19 C-9.606 13.317 -7.98 9.887 -4.438 5.562 C-4.013 5.022 -3.588 4.481 -3.15 3.924 C-2.113 2.606 -1.058 1.302 0 0 Z " fill="#21CCE1" transform="translate(34,121)"/>
<path d="M0 0 C0.66 0.33 1.32 0.66 2 1 C1.826 1.244 1.826 1.244 0.946 2.481 C-0.642 4.715 -2.227 6.951 -3.812 9.188 C-4.36 9.956 -4.907 10.725 -5.471 11.518 C-8.128 15.27 -10.717 19.003 -13 23 C-11.02 23.33 -9.04 23.66 -7 24 C-7 24.33 -7 24.66 -7 25 C-12.75 25.125 -12.75 25.125 -15 24 C-14.705 19.28 -12.382 16.572 -9.559 13.004 C-8.17 11.219 -6.949 9.414 -5.75 7.5 C-5.172 6.675 -4.595 5.85 -4 5 C-3.34 5 -2.68 5 -2 5 C-2 3.68 -2 2.36 -2 1 C-1.34 0.67 -0.68 0.34 0 0 Z " fill="#37097F" transform="translate(129,109)"/>
<path d="M0 0 C0 4.237 -2.215 6.92 -4.438 10.375 C-4.885 11.08 -5.333 11.785 -5.795 12.512 C-17.907 31.454 -17.907 31.454 -21 33 C-19.539 28.86 -17.462 25.623 -15 22 C-14.186 20.782 -13.374 19.563 -12.562 18.344 C-7.437 10.656 -7.437 10.656 -6.199 8.801 C-5.408 7.612 -4.619 6.422 -3.832 5.23 C-1.104 1.104 -1.104 1.104 0 0 Z " fill="#120D7C" transform="translate(73,97)"/>
<path d="M0 0 C5.29 1.763 7.72 7.27 10.125 12.062 C10.441 12.726 10.757 13.39 11.082 14.074 C11.937 15.868 12.872 17.624 13.812 19.375 C14.204 20.241 14.596 21.108 15 22 C14.67 22.66 14.34 23.32 14 24 C2 6.766 2 6.766 2 2 C1.01 2.825 1.01 2.825 -4 7 C-3.688 4.625 -3.688 4.625 -3 2 C-2.01 1.34 -1.02 0.68 0 0 Z " fill="#230B84" transform="translate(78,90)"/>
<path d="M0 0 C0.33 0.99 0.66 1.98 1 3 C-0.328 5.305 -0.328 5.305 -2.25 7.875 C-5.957 12.884 -5.957 12.884 -7.035 15.801 C-9 18 -9 18 -11.295 18.393 C-14.275 18.494 -17.209 18.434 -20.188 18.312 C-21.223 18.29 -22.259 18.267 -23.326 18.244 C-25.886 18.185 -28.442 18.103 -31 18 C-30.835 17.505 -30.835 17.505 -30 15 C-29.34 15.33 -28.68 15.66 -28 16 C-25.342 16.124 -22.721 16.185 -20.062 16.188 C-19.334 16.2 -18.605 16.212 -17.854 16.225 C-14.029 16.235 -12.256 16.171 -9 14 C-8.018 12.33 -7.04 10.656 -6.117 8.953 C-4.311 5.796 -2.152 2.93 0 0 Z " fill="#033285" transform="translate(51,130)"/>
<path d="M0 0 C1 3 1 3 -0.562 6.25 C-2.958 10.192 -5.899 13.6 -9 17 C-9.825 16.67 -9.825 16.67 -14 15 C-13.495 10.621 -10.822 8.183 -8 5 C-7.67 5.66 -7.34 6.32 -7 7 C-7.66 7.784 -8.32 8.567 -9 9.375 C-11 12 -11 12 -11 14 C-6.697 12.496 -5.394 9.752 -3.25 5.875 C-2.636 4.779 -2.023 3.684 -1.391 2.555 C-0.932 1.712 -0.473 0.869 0 0 Z " fill="#45037E" transform="translate(171,100)"/>
<path d="M0 0 C0.66 0.99 1.32 1.98 2 3 C1.67 3.66 1.34 4.32 1 5 C0.34 4.67 -0.32 4.34 -1 4 C-1.062 5.011 -1.124 6.021 -1.188 7.062 C-1.809 11.674 -4.145 14.413 -7 18 C-7.99 17.67 -8.98 17.34 -10 17 C-8.624 13.15 -6.833 10.118 -4.438 6.812 C-1.075 2.149 -1.075 2.149 0 0 Z " fill="#22C9E3" transform="translate(75,59)"/>
<path d="M0 0 C1.32 0 2.64 0 4 0 C4 0.66 4 1.32 4 2 C2.68 2 1.36 2 0 2 C0.035 2.606 0.07 3.212 0.105 3.836 C0.315 10.311 -0.481 15.992 -3 22 C-3.66 22.66 -4.32 23.32 -5 24 C-4.458 18.672 -3.811 13.366 -3.062 8.062 C-2.909 6.96 -2.756 5.858 -2.598 4.723 C-2 2 -2 2 0 0 Z " fill="#4D0381" transform="translate(170,80)"/>
<path d="M0 0 C0 4.227 -2.321 6.489 -4.812 9.688 C-5.264 10.294 -5.716 10.901 -6.182 11.525 C-7.378 13.079 -8.684 14.547 -10 16 C-10.99 16 -11.98 16 -13 16 C-14.641 13.883 -14.641 13.883 -16.25 11.125 C-16.791 10.22 -17.333 9.315 -17.891 8.383 C-18.257 7.596 -18.623 6.81 -19 6 C-18.67 5.34 -18.34 4.68 -18 4 C-17.161 5.288 -16.329 6.581 -15.5 7.875 C-15.036 8.594 -14.572 9.314 -14.094 10.055 C-13 12 -13 12 -13 14 C-9.095 12.698 -8.266 10.91 -5.938 7.562 C-2.143 2.143 -2.143 2.143 0 0 Z " fill="#062E7A" transform="translate(121,89)"/>
<path d="M0 0 C9.57 0 19.14 0 29 0 C27.553 2.894 26.249 5.185 24.375 7.75 C23.929 8.364 23.483 8.977 23.023 9.609 C22.855 9.839 22.855 9.839 22 11 C21.67 10.34 21.34 9.68 21 9 C22.65 6.36 24.3 3.72 26 1 C17.42 1 8.84 1 0 1 C0 0.67 0 0.34 0 0 Z " fill="#003257" transform="translate(101,78)"/>
<path d="M0 0 C0.66 0 1.32 0 2 0 C3.013 1.722 4.01 3.453 5 5.188 C5.557 6.15 6.114 7.113 6.688 8.105 C8.022 11.049 8.279 12.819 8 16 C3.779 12.231 0.243 7.861 -0.25 2.062 C-0.168 1.382 -0.085 0.701 0 0 Z " fill="#2D8AC8" transform="translate(100,93)"/>
<path d="M0 0 C0.66 0 1.32 0 2 0 C1.467 4.225 0.123 6.541 -2.562 9.812 C-3.203 10.603 -3.844 11.393 -4.504 12.207 C-4.998 12.799 -5.491 13.39 -6 14 C-6.99 13.34 -7.98 12.68 -9 12 C-7.689 10.187 -6.376 8.374 -5.062 6.562 C-4.697 6.058 -4.697 6.058 -2.848 3.504 C-1 1 -1 1 0 0 Z " fill="#3F6FCC" transform="translate(121,91)"/>
<path d="M0 0 C0 0.33 0 0.66 0 1 C-3.63 1 -7.26 1 -11 1 C-11.66 2.32 -12.32 3.64 -13 5 C-14.145 6.909 -15.313 8.804 -16.5 10.688 C-17.108 11.661 -17.717 12.634 -18.344 13.637 C-20 16 -20 16 -22 17 C-20.69 12.466 -18.931 9.023 -16.188 5.188 C-15.854 4.71 -15.854 4.71 -14.168 2.293 C-9.975 -2.142 -5.644 -0.996 0 0 Z " fill="#03668F" transform="translate(89,54)"/>
<path d="M0 0 C0.66 0 1.32 0 2 0 C2.33 1.32 2.66 2.64 3 4 C4.32 2.68 5.64 1.36 7 0 C5.667 3.588 4.169 6.836 2 10 C1.34 10 0.68 10 0 10 C-0.33 8.68 -0.66 7.36 -1 6 C-2.32 7.32 -3.64 8.64 -5 10 C-4.691 9.237 -4.381 8.474 -4.062 7.688 C-3.321 5.812 -2.638 3.913 -2 2 C-1.34 2 -0.68 2 0 2 C0 1.34 0 0.68 0 0 Z " fill="#08839E" transform="translate(22,135)"/>
<path d="M0 0 C0.66 0.99 1.32 1.98 2 3 C0.187 6.777 -1.907 10.373 -4 14 C-5.32 13.34 -6.64 12.68 -8 12 C-5.36 8.04 -2.72 4.08 0 0 Z " fill="#5942C4" transform="translate(75,96)"/>
<path d="M0 0 C0.66 0.99 1.32 1.98 2 3 C1.67 3.66 1.34 4.32 1 5 C0.34 4.67 -0.32 4.34 -1 4 C1.97 9.28 4.94 14.56 8 20 C7.34 20.66 6.68 21.32 6 22 C4.873 20.084 3.749 18.167 2.625 16.25 C1.999 15.183 1.372 14.115 0.727 13.016 C-0.598 10.703 -1.846 8.4 -3 6 C-3.66 6 -4.32 6 -5 6 C-4.67 5.01 -4.34 4.02 -4 3 C-2.68 3 -1.36 3 0 3 C0 2.01 0 1.02 0 0 Z " fill="#025E92" transform="translate(82,58)"/>
<path d="M0 0 C0.99 0 1.98 0 3 0 C1.375 5.75 1.375 5.75 -2 8 C-2.33 7.67 -2.66 7.34 -3 7 C-4.413 6.844 -5.834 6.749 -7.254 6.684 C-8.108 6.642 -8.962 6.6 -9.842 6.557 C-10.74 6.517 -11.637 6.478 -12.562 6.438 C-13.464 6.394 -14.366 6.351 -15.295 6.307 C-17.53 6.2 -19.765 6.098 -22 6 C-22 5.67 -22 5.34 -22 5 C-15.4 5 -8.8 5 -2 5 C-1.34 3.35 -0.68 1.7 0 0 Z " fill="#26AAD2" transform="translate(44,143)"/>
<path d="M0 0 C8.58 0 17.16 0 26 0 C24.746 3.134 23.539 6.031 22 9 C21.34 9 20.68 9 20 9 C21.875 3.25 21.875 3.25 23 1 C22.597 1.087 22.597 1.087 20.555 1.527 C16.313 2.091 12.378 1.876 8.125 1.562 C7.341 1.51 6.558 1.458 5.75 1.404 C3.833 1.276 1.916 1.139 0 1 C0 0.67 0 0.34 0 0 Z " fill="#02607D" transform="translate(142,58)"/>
<path d="M0 0 C0.33 0.66 0.66 1.32 1 2 C1.66 2.33 2.32 2.66 3 3 C1.68 5.31 0.36 7.62 -1 10 C-2.98 10 -4.96 10 -7 10 C-4.754 6.593 -2.489 3.235 0 0 Z " fill="#504AC3" transform="translate(85,139)"/>
<path d="M0 0 C3.96 0 7.92 0 12 0 C12 1.32 12 2.64 12 4 C8.04 3.67 4.08 3.34 0 3 C0 2.01 0 1.02 0 0 Z " fill="#505AD2" transform="translate(176,129)"/>
<path d="M0 0 C0.33 0.99 0.66 1.98 1 3 C0.01 3.33 -0.98 3.66 -2 4 C-3.188 7.062 -3.188 7.062 -4 10 C-4.66 10 -5.32 10 -6 10 C-6.248 10.763 -6.495 11.526 -6.75 12.312 C-8.11 15.236 -9.316 16.3 -12 18 C-10.61 13.551 -8.14 10.43 -5.242 6.867 C-4 5 -4 5 -4 2 C-2.68 1.34 -1.36 0.68 0 0 Z " fill="#065C8A" transform="translate(171,60)"/>
<path d="M0 0 C0.99 0.33 1.98 0.66 3 1 C3 1.66 3 2.32 3 3 C9.27 3 15.54 3 22 3 C22 3.33 22 3.66 22 4 C18.535 4.165 18.535 4.165 1 5 C0.67 3.35 0.34 1.7 0 0 Z " fill="#196894" transform="translate(75,148)"/>
<path d="M0 0 C0.33 0 0.66 0 1 0 C1.313 8.136 1.313 8.136 -1 11 C-3.625 11.75 -3.625 11.75 -6 12 C-6.33 11.34 -6.66 10.68 -7 10 C-6.34 9.34 -5.68 8.68 -5 8 C-3.759 6.139 -2.562 4.246 -1.438 2.312 C-1.2 1.931 -1.2 1.931 0 0 Z " fill="#9218D4" transform="translate(170,94)"/>
<path d="M0 0 C1 3 1 3 0.375 5.312 C-1.353 8.689 -3.49 11.159 -6 14 C-6.625 12.188 -6.625 12.188 -7 10 C-6.34 9.01 -5.68 8.02 -5 7 C-4.34 7 -3.68 7 -3 7 C-2.938 6.701 -2.938 6.701 -2.625 5.188 C-2 3 -2 3 0 0 Z " fill="#26B8DE" transform="translate(167,60)"/>
<path d="M0 0 C0.99 0.33 1.98 0.66 3 1 C2.763 1.217 2.763 1.217 1.562 2.312 C0 4 0 4 -1 7 C-1.299 7.206 -1.299 7.206 -2.812 8.25 C-5.892 10.714 -7.163 13.522 -9 17 C-9.66 17 -10.32 17 -11 17 C-8.163 10.853 -3.94 5.472 0 0 Z " fill="#093692" transform="translate(190,131)"/>
<path d="M0 0 C0.66 0 1.32 0 2 0 C0.481 4.432 -1.926 8.03 -4.625 11.812 C-5.045 12.41 -5.465 13.007 -5.898 13.623 C-6.928 15.085 -7.963 16.543 -9 18 C-9.645 16.188 -9.645 16.188 -10 14 C-8.806 12.451 -7.601 10.905 -6.281 9.461 C-4.806 7.779 -3.87 6.056 -3 4 C-2.34 4 -1.68 4 -1 4 C-0.67 2.68 -0.34 1.36 0 0 Z " fill="#057091" transform="translate(34,117)"/>
<path d="M0 0 C0.33 0.99 0.66 1.98 1 3 C0.34 3 -0.32 3 -1 3 C-1.206 3.681 -1.412 4.361 -1.625 5.062 C-4.196 10.556 -8.66 14.827 -13 19 C-11.443 14.095 -8.567 10.62 -5.375 6.688 C-4.859 6.042 -4.344 5.397 -3.812 4.732 C-2.547 3.151 -1.274 1.575 0 0 Z " fill="#121271" transform="translate(99,126)"/>
<path d="M0 0 C0 3.382 -0.445 3.967 -2.406 6.574 C-2.654 6.908 -2.654 6.908 -3.91 8.596 C-4.435 9.286 -4.959 9.976 -5.5 10.688 C-6.025 11.389 -6.549 12.091 -7.09 12.814 C-8.387 14.548 -9.693 16.275 -11 18 C-11.33 17.01 -11.66 16.02 -12 15 C-11.12 13.39 -11.12 13.39 -9.727 11.68 C-9.232 11.062 -8.737 10.445 -8.227 9.809 C-7.698 9.171 -7.17 8.532 -6.625 7.875 C-6.104 7.229 -5.583 6.583 -5.047 5.918 C-1.352 1.352 -1.352 1.352 0 0 Z " fill="#072E7E" transform="translate(149,83)"/>
<path d="M0 0 C0.66 0 1.32 0 2 0 C0.321 3.801 -2.115 6.971 -4.625 10.25 C-5.045 10.804 -5.465 11.359 -5.898 11.93 C-6.929 13.289 -7.964 14.645 -9 16 C-9.33 15.34 -9.66 14.68 -10 14 C-9.147 11.796 -8.269 10.265 -6.582 8.602 C-4.435 6.428 -2.87 3.963 -1.184 1.426 C-0.793 0.955 -0.402 0.485 0 0 Z " fill="#055690" transform="translate(160,67)"/>
<path d="M0 0 C0.99 0.33 1.98 0.66 3 1 C3 2.32 3 3.64 3 5 C-3.93 4.67 -10.86 4.34 -18 4 C-18 3.67 -18 3.34 -18 3 C-15.195 2.835 -15.195 2.835 -1 2 C-0.67 1.34 -0.34 0.68 0 0 Z " fill="#5655DD" transform="translate(88,110)"/>
<path d="M0 0 C1.812 0.125 1.812 0.125 4 1 C5.953 4.209 7 6.221 7 10 C3.786 8.892 3.009 8.015 1.25 5 C0 2 0 2 0 0 Z " fill="#1AC1DD" transform="translate(81,62)"/>
<path d="M0 0 C0.33 0.66 0.66 1.32 1 2 C5.62 2 10.24 2 15 2 C15 2.66 15 3.32 15 4 C9.72 4 4.44 4 -1 4 C-0.67 2.68 -0.34 1.36 0 0 Z " fill="#090C72" transform="translate(71,108)"/>
<path d="M0 0 C2.24 2.879 4.299 5.767 6 9 C5.67 9.66 5.34 10.32 5 11 C2 10 2 10 0.25 7.75 C-1.187 4.589 -1.022 3.252 0 0 Z " fill="#2B9ED5" transform="translate(94,81)"/>
<path d="M0 0 C0.66 0 1.32 0 2 0 C0.558 4.152 -1.501 7.3 -4.125 10.812 C-4.487 11.3 -4.487 11.3 -6.32 13.77 C-6.875 14.506 -7.429 15.242 -8 16 C-8 12.638 -7.33 11.435 -5.688 8.562 C-5.258 7.801 -4.829 7.039 -4.387 6.254 C-3.028 4.046 -1.679 1.976 0 0 Z " fill="#037194" transform="translate(61,77)"/>
<path d="M0 0 C0.99 0.33 1.98 0.66 3 1 C0.697 7.201 -2.18 11.441 -7 16 C-5.935 12.982 -4.763 10.655 -2.938 8 C-1.099 5.154 -0.39 3.317 0 0 Z " fill="#067193" transform="translate(74,63)"/>
<path d="M0 0 C0.33 0.66 0.66 1.32 1 2 C1.66 2.33 2.32 2.66 3 3 C1.951 5.622 1.351 6.794 -1.125 8.25 C-1.744 8.498 -2.363 8.745 -3 9 C-3.66 8.34 -4.32 7.68 -5 7 C-3.35 4.69 -1.7 2.38 0 0 Z " fill="#2B80C4" transform="translate(179,141)"/>
<path d="M0 0 C0.66 0.33 1.32 0.66 2 1 C-1.625 7.875 -1.625 7.875 -5 9 C-5.66 7.68 -6.32 6.36 -7 5 C-7.66 5 -8.32 5 -9 5 C-8.67 3.68 -8.34 2.36 -8 1 C-7.546 1.66 -7.093 2.32 -6.625 3 C-6.089 3.66 -5.552 4.32 -5 5 C-4.34 5 -3.68 5 -3 5 C-1.375 2.5 -1.375 2.5 0 0 Z " fill="#111B80" transform="translate(102,113)"/>
<path d="M0 0 C0.66 0 1.32 0 2 0 C1.521 4.314 0.254 6.166 -3 9 C-3.66 8.67 -4.32 8.34 -5 8 C-3.631 5.05 -2.122 2.475 0 0 Z " fill="#2E85CE" transform="translate(50,135)"/>
<path d="M0 0 C7.117 8.59 7.117 8.59 6.812 12.25 C6 14 6 14 4 15 C3.897 13.948 3.794 12.896 3.688 11.812 C3.015 8.083 2.001 6.132 0 3 C0 2.01 0 1.02 0 0 Z " fill="#052B88" transform="translate(100,98)"/>
<path d="M0 0 C0.66 0.33 1.32 0.66 2 1 C2 2.32 2 3.64 2 5 C2.66 5 3.32 5 4 5 C4 7.31 4 9.62 4 12 C1.477 8.876 -0.273 5.619 -2 2 C-1.34 2 -0.68 2 0 2 C0 1.34 0 0.68 0 0 Z " fill="#4D55C8" transform="translate(91,113)"/>
<path d="M0 0 C0.66 0 1.32 0 2 0 C1.497 4.401 -0.088 6.712 -3 10 C-4 7 -4 7 -2.625 3.875 C-1 1 -1 1 0 0 Z " fill="#1ECBE4" transform="translate(48,100)"/>
<path d="M0 0 C0.99 0 1.98 0 3 0 C2.426 3.871 0.513 6.082 -2 9 C-2.66 8.67 -3.32 8.34 -4 8 C-2.68 5.36 -1.36 2.72 0 0 Z " fill="#4470CE" transform="translate(142,94)"/>
<path d="M0 0 C0.66 1.32 1.32 2.64 2 4 C-0.245 7.368 -1.316 7.711 -5 9 C-5.33 9.165 -5.33 9.165 -7 10 C-6.688 8.062 -6.688 8.062 -6 6 C-5.01 5.67 -4.02 5.34 -3 5 C-1.312 2.438 -1.312 2.438 0 0 Z " fill="#1AB2C2" transform="translate(21,139)"/>
<path d="M0 0 C-0.597 3.342 -1.736 5.464 -4 8 C-4.66 8 -5.32 8 -6 8 C-5.624 5.218 -5.327 3.412 -3.562 1.188 C-2 0 -2 0 0 0 Z " fill="#594ED1" transform="translate(92,133)"/>
<path d="M0 0 C0.66 0 1.32 0 2 0 C2.66 1.98 3.32 3.96 4 6 C2.68 5.67 1.36 5.34 0 5 C0 5.66 0 6.32 0 7 C-0.66 7 -1.32 7 -2 7 C-1.125 1.125 -1.125 1.125 0 0 Z " fill="#6A3CD8" transform="translate(78,92)"/>
<path d="M0 0 C0.33 0.66 0.66 1.32 1 2 C0.526 2.578 0.051 3.155 -0.438 3.75 C-2 6 -2 6 -2.438 8.062 C-3.213 10.734 -4.72 11.529 -7 13 C-7.66 12.67 -8.32 12.34 -9 12 C-6.03 8.04 -3.06 4.08 0 0 Z " fill="#0A2B7A" transform="translate(149,90)"/>
<path d="M0 0 C0.33 0.66 0.66 1.32 1 2 C-1.31 4.97 -3.62 7.94 -6 11 C-7.231 8.537 -7.072 6.72 -7 4 C-6.34 3.67 -5.68 3.34 -5 3 C-5 3.66 -5 4.32 -5 5 C-3.35 3.35 -1.7 1.7 0 0 Z " fill="#195291" transform="translate(129,85)"/>
<path d="M0 0 C0.66 0.33 1.32 0.66 2 1 C3.373 1.15 4.753 1.248 6.133 1.316 C6.938 1.358 7.744 1.4 8.574 1.443 C9.416 1.483 10.258 1.522 11.125 1.562 C11.55 1.584 11.55 1.584 13.699 1.693 C15.799 1.8 17.9 1.9 20 2 C20 2.33 20 2.66 20 3 C13.07 3 6.14 3 -1 3 C-0.67 2.01 -0.34 1.02 0 0 Z " fill="#004B5C" transform="translate(21,145)"/>
<path d="M0 0 C0.66 0.33 1.32 0.66 2 1 C-0.64 4.63 -3.28 8.26 -6 12 C-6.33 11.34 -6.66 10.68 -7 10 C-6.022 8.52 -5.043 7.041 -4.062 5.562 C-3.517 4.739 -2.972 3.915 -2.41 3.066 C-1 1 -1 1 0 0 Z " fill="#162887" transform="translate(59,118)"/>
<path d="M0 0 C0.66 0.33 1.32 0.66 2 1 C-0.64 4.63 -3.28 8.26 -6 12 C-6.33 11.01 -6.66 10.02 -7 9 C-5.688 6.812 -5.688 6.812 -4 5 C-3.34 5 -2.68 5 -2 5 C-2 3.68 -2 2.36 -2 1 C-1.34 0.67 -0.68 0.34 0 0 Z " fill="#18148A" transform="translate(129,109)"/>
<path d="M0 0 C1.108 3.325 0.845 5.622 0 9 C-0.33 8.34 -0.66 7.68 -1 7 C-1.66 7.33 -1.66 7.33 -5 9 C-3.751 5.541 -2.325 2.853 0 0 Z " fill="#1093B1" transform="translate(51,93)"/>
<path d="M0 0 C0.33 0 0.66 0 1 0 C1.346 5.654 0.434 9.03 -2 14 C-3.251 10.453 -2.723 8.277 -1.562 4.75 C-1.275 3.858 -0.988 2.966 -0.691 2.047 C-0.463 1.371 -0.235 0.696 0 0 Z " fill="#32027C" transform="translate(168,90)"/>
<path d="M0 0 C-1.369 2.95 -2.878 5.525 -5 8 C-5.66 8 -6.32 8 -7 8 C-6.63 5.259 -6.314 3.414 -4.625 1.188 C-3 0 -3 0 0 0 Z " fill="#2D94D4" transform="translate(136,75)"/>
<path d="M0 0 C3.835 3.287 6.325 7.251 8 12 C7.67 12.66 7.34 13.32 7 14 C5.825 12.235 4.66 10.463 3.5 8.688 C2.85 7.701 2.201 6.715 1.531 5.699 C0 3 0 3 0 0 Z " fill="#034286" transform="translate(89,79)"/>
<path d="M0 0 C3.442 2.66 3.995 5.903 5 10 C4.01 10.66 3.02 11.32 2 12 C1.34 10.35 0.68 8.7 0 7 C0.66 7 1.32 7 2 7 C1.34 4.69 0.68 2.38 0 0 Z " fill="#198FB8" transform="translate(86,65)"/>
<path d="M0 0 C0.33 0.99 0.66 1.98 1 3 C-0.32 4.32 -1.64 5.64 -3 7 C-3.99 6.67 -4.98 6.34 -6 6 C-2.25 1.125 -2.25 1.125 0 0 Z " fill="#4D58C6" transform="translate(135,106)"/>
<path d="M0 0 C0.66 0 1.32 0 2 0 C3.765 3.088 4 4.233 4 8 C3.01 7.67 2.02 7.34 1 7 C0.67 4.69 0.34 2.38 0 0 Z " fill="#2796D6" transform="translate(100,93)"/>
<path d="M0 0 C0.688 1.75 0.688 1.75 1 4 C-0.312 6.25 -0.312 6.25 -2 8 C-2.66 8 -3.32 8 -4 8 C-3.502 4.312 -2.899 2.395 0 0 Z " fill="#3D75D4" transform="translate(184,135)"/>
<path d="M0 0 C-0.498 3.688 -1.101 5.605 -4 8 C-4.688 5.688 -4.688 5.688 -5 3 C-3.401 0.792 -2.77 0 0 0 Z " fill="#623FCF" transform="translate(125,121)"/>
<path d="M0 0 C0.66 0 1.32 0 2 0 C4.748 3.58 6.47 6.492 7 11 C4.082 8.373 2.055 5.33 0 2 C0 1.34 0 0.68 0 0 Z " fill="#121183" transform="translate(86,103)"/>
<path d="M0 0 C0 3.606 -0.817 4.413 -3 7.188 C-3.557 7.903 -4.114 8.618 -4.688 9.355 C-5.121 9.898 -5.554 10.441 -6 11 C-6.33 10.34 -6.66 9.68 -7 9 C-6.074 7.09 -6.074 7.09 -4.688 4.938 C-4.238 4.225 -3.788 3.512 -3.324 2.777 C-2 1 -2 1 0 0 Z " fill="#043284" transform="translate(129,78)"/>
<path d="M0 0 C0.639 0.474 1.279 0.949 1.938 1.438 C5.922 3.47 9.585 3.721 14 4 C14 4.33 14 4.66 14 5 C10.04 5 6.08 5 2 5 C1.34 3.35 0.68 1.7 0 0 Z " fill="#084373" transform="translate(89,70)"/>
<path d="M0 0 C1.32 0.33 2.64 0.66 4 1 C2.935 3.131 1.708 4.366 0 6 C-0.99 5.67 -1.98 5.34 -3 5 C-3 4.34 -3 3.68 -3 3 C-2.01 3 -1.02 3 0 3 C0 2.01 0 1.02 0 0 Z " fill="#515EE5" transform="translate(95,122)"/>
<path d="M0 0 C0.33 0.66 0.66 1.32 1 2 C1.66 2.33 2.32 2.66 3 3 C2.01 3.99 1.02 4.98 0 6 C-0.99 5.67 -1.98 5.34 -3 5 C-1.125 1.125 -1.125 1.125 0 0 Z " fill="#7C21C7" transform="translate(162,109)"/>
<path d="M0 0 C0.33 0.66 0.66 1.32 1 2 C3.31 2 5.62 2 8 2 C7.67 2.66 7.34 3.32 7 4 C4.69 4 2.38 4 0 4 C-0.33 3.34 -0.66 2.68 -1 2 C-0.67 1.34 -0.34 0.68 0 0 Z " fill="#1B8091" transform="translate(13,149)"/>
<path d="M0 0 C0.33 0.99 0.66 1.98 1 3 C0.34 3 -0.32 3 -1 3 C-1.289 3.804 -1.578 4.609 -1.875 5.438 C-3 8 -3 8 -5 9 C-4.426 5.129 -2.513 2.918 0 0 Z " fill="#0C117C" transform="translate(99,126)"/>
<path d="M0 0 C0.99 0 1.98 0 3 0 C2.34 1.65 1.68 3.3 1 5 C0.01 5 -0.98 5 -2 5 C-1.34 3.35 -0.68 1.7 0 0 Z " fill="#4961DB" transform="translate(111,104)"/>
<path d="M0 0 C0.66 1.32 1.32 2.64 2 4 C1.01 4.99 0.02 5.98 -1 7 C-1 6.34 -1 5.68 -1 5 C-1.66 4.67 -2.32 4.34 -3 4 C-2.01 2.68 -1.02 1.36 0 0 Z " fill="#23C1DD" transform="translate(53,92)"/>
<path d="M0 0 C0.66 0 1.32 0 2 0 C1.67 1.65 1.34 3.3 1 5 C0.01 5.33 -0.98 5.66 -2 6 C-1.125 1.125 -1.125 1.125 0 0 Z " fill="#2D98D8" transform="translate(152,81)"/>
<path d="M0 0 C0.66 0.99 1.32 1.98 2 3 C1.67 3.66 1.34 4.32 1 5 C0.34 4.67 -0.32 4.34 -1 4 C-1 4.66 -1 5.32 -1 6 C-2.32 6 -3.64 6 -5 6 C-4.67 5.01 -4.34 4.02 -4 3 C-2.68 3 -1.36 3 0 3 C0 2.01 0 1.02 0 0 Z " fill="#0C89A5" transform="translate(82,58)"/>
<path d="" fill="#00C7FF" transform="translate(0,0)"/>
<path d="" fill="#FF0072" transform="translate(0,0)"/>
<path d="" fill="#4C2FE4" transform="translate(0,0)"/>
<path d="" fill="#AB00FF" transform="translate(0,0)"/>
<path d="" fill="#39FFAB" transform="translate(0,0)"/>
<path d="" fill="#FFFFFF" transform="translate(0,0)"/>
<path d="" fill="#47FF39" transform="translate(0,0)"/>
</svg>
